<svg width="70" height="70" viewBox="0 0 70 70" fill="none" xmlns="http://www.w3.org/2000/svg">
<g filter="url(#filter0_ii_216_64)">
<circle cx="35" cy="35" r="35" fill="url(#paint0_linear_216_64)"/>
</g>
<path d="M19.9766 34.4961L24.7812 45.5117L29.293 35.0938H31.4023L24.7812 50.457L19.9766 39.418L15.1719 50.457L8.55078 35.0938H10.6602L15.1953 45.6055L19.9766 34.4961Z" fill="#00FFFF"/>
<path d="M41.0156 45.5586H32.7656C32.9453 46.5508 33.3516 47.2773 33.9844 47.7383C34.625 48.1914 35.3203 48.418 36.0703 48.418C37.2266 48.418 38.1953 47.9375 38.9766 46.9766L40.4648 48.1016C39.3477 49.5469 37.8516 50.2695 35.9766 50.2695C34.5391 50.2695 33.3359 49.7773 32.3672 48.793C31.3984 47.8086 30.9141 46.5859 30.9141 45.125C30.9141 43.7578 31.4023 42.5742 32.3789 41.5742C33.3633 40.5664 34.5625 40.0625 35.9766 40.0625C37.3672 40.0625 38.5586 40.5742 39.5508 41.5977C40.543 42.6133 41.0312 43.9336 41.0156 45.5586ZM32.9766 43.9297H38.8828C38.2266 42.6016 37.2578 41.9375 35.9766 41.9375C34.5781 41.9375 33.5781 42.6016 32.9766 43.9297ZM44.6236 34.7891H46.6392V42.2422C47.5064 40.7891 48.7486 40.0625 50.3658 40.0625C51.6158 40.0625 52.6978 40.5625 53.6119 41.5625C54.5338 42.5625 54.9947 43.75 54.9947 45.125C54.9947 46.5 54.5416 47.7031 53.6353 48.7344C52.7369 49.7578 51.6861 50.2695 50.483 50.2695C49.7095 50.2695 48.9752 50.0625 48.2798 49.6484C47.5845 49.2344 47.0377 48.6719 46.6392 47.9609V50H44.6236V34.7891ZM52.8384 45.125C52.8384 44.2422 52.522 43.4883 51.8892 42.8633C51.2564 42.2305 50.4908 41.9141 49.5923 41.9141C48.7252 41.9141 47.9713 42.2344 47.3306 42.875C46.6978 43.5078 46.3814 44.2578 46.3814 45.125C46.3814 46.0312 46.6978 46.7969 47.3306 47.4219C47.9713 48.0391 48.7564 48.3477 49.6861 48.3477C50.5455 48.3477 51.2838 48.0312 51.9009 47.3984C52.5259 46.7656 52.8384 46.0078 52.8384 45.125Z" fill="#00FFFF"/>
<path d="M20.0234 34.5039L15.2188 23.4883L10.707 33.9062L8.59766 33.9062L15.2188 18.543L20.0234 29.582L24.8281 18.543L31.4492 33.9062L29.3398 33.9062L24.8047 23.3945L20.0234 34.5039Z" fill="white"/>
<path d="M32.9844 21.1562C32.9844 20.7344 33.1406 20.3711 33.4531 20.0664C33.7656 19.7539 34.1367 19.5977 34.5664 19.5977C34.9883 19.5977 35.3516 19.7539 35.6562 20.0664C35.9688 20.3711 36.125 20.7344 36.125 21.1562C36.125 21.5859 35.9688 21.9531 35.6562 22.2578C35.3516 22.5625 34.9883 22.7148 34.5664 22.7148C34.1367 22.7148 33.7656 22.5625 33.4531 22.2578C33.1406 21.9531 32.9844 21.5859 32.9844 21.1562ZM33.5586 24.332H35.5742V34H33.5586V24.332ZM38.2578 34V24.332H40.25V25.9375C40.8359 25.2891 41.3672 24.8164 41.8438 24.5195C42.3203 24.2148 42.8516 24.0625 43.4375 24.0625C44.3125 24.0625 45.0586 24.3516 45.6758 24.9297C46.3008 25.5078 46.6133 26.2031 46.6133 27.0156V34H44.5742V27.6133C44.5742 27.0898 44.4023 26.6562 44.0586 26.3125C43.7227 25.9688 43.293 25.7969 42.7695 25.7969C42.0898 25.7969 41.5039 26.0859 41.0117 26.6641C40.5195 27.2344 40.2734 27.9258 40.2734 28.7383V34H38.2578ZM57.2539 18.7891H59.2695V34H57.2773V31.9844C56.3164 33.5078 55.0586 34.2695 53.5039 34.2695C52.2461 34.2695 51.168 33.7656 50.2695 32.7578C49.3711 31.75 48.9219 30.5391 48.9219 29.125C48.9219 27.7422 49.3789 26.5547 50.293 25.5625C51.207 24.5625 52.2969 24.0625 53.5625 24.0625C54.3203 24.0625 55.0273 24.2734 55.6836 24.6953C56.3398 25.1172 56.8633 25.668 57.2539 26.3477V18.7891ZM57.4883 29.1484C57.4883 28.2812 57.1719 27.5312 56.5391 26.8984C55.9062 26.2578 55.1523 25.9375 54.2773 25.9375C53.3711 25.9375 52.6016 26.25 51.9688 26.875C51.3438 27.4922 51.0312 28.25 51.0312 29.1484C51.0312 30.0078 51.3516 30.7617 51.9922 31.4102C52.6328 32.0508 53.3789 32.3711 54.2305 32.3711C55.1367 32.3711 55.9062 32.0586 56.5391 31.4336C57.1719 30.8086 57.4883 30.0469 57.4883 29.1484Z" fill="white"/>
<defs>
<filter id="filter0_ii_216_64" x="-1.54726" y="-2.38257" width="73.0945" height="74.7651" filterUnits="userSpaceOnUse" color-interpolation-filters="sRGB">
<feFlood flood-opacity="0" result="BackgroundImageFix"/>
<feBlend mode="normal" in="SourceGraphic" in2="BackgroundImageFix" result="shape"/>
<feColorMatrix in="SourceAlpha" type="matrix" values="0 0 0 0 0 0 0 0 0 0 0 0 0 0 0 0 0 0 127 0" result="hardAlpha"/>
<feOffset dx="1.54726" dy="2.38257"/>
<feGaussianBlur stdDeviation="1.42044"/>
<feComposite in2="hardAlpha" operator="arithmetic" k2="-1" k3="1"/>
<feColorMatrix type="matrix" values="0 0 0 0 0.717187 0 0 0 0 0 0 0 0 0 0.85 0 0 0 1 0"/>
<feBlend mode="normal" in2="shape" result="effect1_innerShadow_216_64"/>
<feColorMatrix in="SourceAlpha" type="matrix" values="0 0 0 0 0 0 0 0 0 0 0 0 0 0 0 0 0 0 127 0" result="hardAlpha"/>
<feOffset dx="-1.54726" dy="-2.38257"/>
<feGaussianBlur stdDeviation="1.42044"/>
<feComposite in2="hardAlpha" operator="arithmetic" k2="-1" k3="1"/>
<feColorMatrix type="matrix" values="0 0 0 0 0.158892 0 0 0 0 0.00581595 0 0 0 0 0.279167 0 0 0 1 0"/>
<feBlend mode="normal" in2="effect1_innerShadow_216_64" result="effect2_innerShadow_216_64"/>
</filter>
<linearGradient id="paint0_linear_216_64" x1="0" y1="0" x2="70" y2="70" gradientUnits="userSpaceOnUse">
<stop stop-color="#AE00BE"/>
<stop offset="1" stop-color="#1E0073"/>
</linearGradient>
</defs>
</svg>
