<svg width="24" height="24" viewBox="0 0 24 24" fill="none" xmlns="http://www.w3.org/2000/svg">
<path d="M21.301 2.87348C21.0672 2.88374 20.8396 2.9488 20.6344 3.03098C20.4313 3.11261 19.2619 3.61173 17.535 4.35005C15.8082 5.08836 13.5634 6.04981 11.3381 7.00317C6.88771 8.9099 2.5144 10.786 2.5144 10.786L2.54627 10.7738C2.54627 10.7738 2.28232 10.862 2.01471 11.0485C1.8809 11.1417 1.73695 11.2621 1.61908 11.4375C1.50122 11.613 1.41505 11.8617 1.44752 12.1247C1.56158 13.0486 2.51908 13.3107 2.51908 13.3107L2.52283 13.3125L6.79596 14.775C6.90491 15.1385 8.09201 19.1006 8.35315 19.9397C8.49736 20.4036 8.63235 20.6712 8.77315 20.8538C8.8436 20.9451 8.91744 21.0158 8.99908 21.0675C9.03152 21.0881 9.06564 21.1035 9.0994 21.1172C9.10012 21.1176 9.10055 21.1169 9.10127 21.1172C9.10542 21.1191 9.10932 21.1192 9.11346 21.121L9.10221 21.1182C9.11005 21.1213 9.11779 21.1267 9.12565 21.1294C9.14088 21.1348 9.15021 21.1346 9.16971 21.1388C9.65909 21.3097 10.0641 20.9925 10.0641 20.9925L10.081 20.9794L12.706 18.5447L16.966 21.8663L17.0194 21.8907C17.7651 22.2217 18.4394 22.037 18.8128 21.7332C19.1863 21.4293 19.3331 21.0375 19.3331 21.0375L19.3491 20.9963L22.4794 4.68098C22.5595 4.31597 22.5709 4.00046 22.4953 3.71536C22.4198 3.43025 22.2363 3.18241 22.006 3.04504C21.7757 2.90768 21.5347 2.86323 21.301 2.87348ZM21.3263 3.84942C21.4212 3.84502 21.4916 3.85588 21.5138 3.86911C21.536 3.88234 21.5459 3.8806 21.5672 3.96098C21.5885 4.04137 21.6 4.21068 21.5419 4.47567L21.54 4.4813L18.4275 20.7019C18.4202 20.7182 18.3553 20.8683 18.2072 20.9888C18.0561 21.1117 17.8881 21.2077 17.4422 21.0207L12.7838 17.3879L12.6525 17.2847L12.6497 17.2875L11.2566 16.2422L19.0856 7.0313C19.1458 6.9607 19.1842 6.87419 19.1963 6.78223C19.2083 6.69026 19.1934 6.59678 19.1535 6.51309C19.1135 6.42939 19.0501 6.35906 18.9711 6.3106C18.892 6.26215 18.8005 6.23764 18.7078 6.24005C18.6172 6.2424 18.5291 6.27035 18.4538 6.32067L7.12502 13.8732L2.84533 12.4079C2.84533 12.4079 2.42036 12.1714 2.40002 12.0066C2.39889 11.9975 2.39387 12.0057 2.41596 11.9729C2.43804 11.94 2.49355 11.8845 2.56315 11.836C2.70233 11.739 2.86127 11.6804 2.86127 11.6804L2.87721 11.6747L2.89315 11.6682C2.89315 11.6682 7.26669 9.79199 11.7169 7.88536C13.942 6.93204 16.1864 5.9713 17.9128 5.23317C19.6388 4.49523 20.886 3.96406 20.9916 3.92161C21.1118 3.87347 21.2313 3.85382 21.3263 3.84942ZM16.1344 9.02067L10.1972 16.006L10.1944 16.0088C10.1851 16.02 10.1764 16.0315 10.1681 16.0435C10.1587 16.0565 10.15 16.0699 10.1419 16.0838C10.1085 16.1404 10.0872 16.2033 10.0791 16.2685C10.0791 16.2697 10.0791 16.271 10.0791 16.2722L9.30565 19.7504C9.29279 19.7128 9.28378 19.699 9.27002 19.6547V19.6538C9.02436 18.8645 7.90435 15.1278 7.7494 14.611L16.1344 9.02067ZM10.8675 17.1507L11.9344 17.9513L10.3669 19.4044L10.8675 17.1507Z" fill="white"/>
</svg>
