<svg viewBox="0 0 64 64" xml:space="preserve" xmlns="http://www.w3.org/2000/svg" enable-background="new 0 0 64 64"><path d="M60 51.1h-8.4c-1 0-2-.6-2.6-1.4l-.8-1.3c-.5-.6-5.1-5.9-7.9-7.6-1.1-.6-1.5-.5-1.5-.5s-.1.3-.1.4V46c0 2.8-2.3 5-5 5h-2c-.5 0-11.7-.2-20.6-13.5C4.1 27.1 1.8 20.3 1 16.4c-.2-.9.1-1.8.6-2.5.6-.7 1.4-1.1 2.3-1.1H11c1.3 0 2.4.8 2.8 2.1.8 2.3 2.8 8.2 5.2 12 3.5 5.8 4.9 6.3 5.3 6.3.3-.5.2-2.5.2-3.8V26.3c0-2.5.1-5.9-.9-7.5l-2-2.9c-.4-.6-.5-1.4-.1-2.1.3-.7 1-1.1 1.8-1.1h11.4c1.7 0 3 1.4 3 3v14.4c0 .1.1.2.1.2s.4 0 1.5-1c2.3-2.3 5.2-6.6 8.1-12.5l1-2.3c.5-1.1 1.6-1.8 2.8-1.8h7.4c1 0 1.9.5 2.5 1.3.6.8.7 1.9.3 2.8l-.8 2.1v.1c-.1.2-2.8 5.5-5.6 9.4-2.2 3-3.1 4.4-2.9 4.9.2.3 1.5 1.8 2.8 3 2.4 2.5 5.4 5.7 6.5 7.8.5.9 1 1.7 1.3 2.4.5.9.5 2-.1 3-.6 1.1-1.5 1.6-2.6 1.6zM39 38.3c.7 0 1.5.3 2.4.8 3.3 1.9 8.3 7.8 8.5 8.1l.1.1.8 1.3c.2.3.5.5.9.5H60c.5 0 .8-.3.9-.5.1-.1.3-.5 0-1-.4-.7-.8-1.5-1.3-2.4-1-1.8-4-5-6.2-7.4-2.2-2.4-3-3.2-3.2-3.7-.6-1.5.3-2.7 3.2-6.7 2.6-3.6 5.1-8.5 5.4-9.1l.8-2.1c.1-.3.1-.7-.1-.9-.2-.3-.5-.4-.8-.4h-7.4c-.4 0-.8.2-.9.6l-1 2.4c-2.2 4.3-5.4 10-8.5 13.1-1.3 1.3-2.5 1.7-3.5 1.4-1.2-.4-1.5-1.7-1.5-1.8V15.9c0-.6-.5-1-1-1H23.3l2 2.9c1.3 2.1 1.3 5.8 1.2 8.7V29.4c.1 2.8.1 5.4-1.7 5.8-2 .4-4.1-1.7-7.5-7.2C15 24.1 13 18.6 12 15.6c-.1-.4-.5-.7-1-.7H4c-.3 0-.6.1-.8.4-.2.2-.2.5-.2.8.7 3.7 3 10.2 9.8 20.4 8.3 12.4 18.8 12.6 18.9 12.6h2c1.7 0 3-1.4 3-3v-5.3c0-.1 0-1.5 1.1-2.2.4-.2.8-.3 1.2-.3z" id="VK" fill="#ffffff" class="fill-000000"></path></svg>